<?xml version="1.0" encoding="UTF-8" standalone="no"?>
<!-- Created with Inkscape (http://www.inkscape.org/) -->

<svg
   xmlns:dc="http://purl.org/dc/elements/1.1/"
   xmlns:cc="http://creativecommons.org/ns#"
   xmlns:rdf="http://www.w3.org/1999/02/22-rdf-syntax-ns#"
   xmlns:svg="http://www.w3.org/2000/svg"
   xmlns="http://www.w3.org/2000/svg"
   xmlns:sodipodi="http://sodipodi.sourceforge.net/DTD/sodipodi-0.dtd"
   xmlns:inkscape="http://www.inkscape.org/namespaces/inkscape"
   version="1.1"
   id="svg3767"
   width="160"
   height="160"
   viewBox="0 0 160 160"
   sodipodi:docname="logo.svg"
   inkscape:version="0.92.4 5da689c313, 2019-01-14">
  <metadata
     id="metadata3773">
    <rdf:RDF>
      <cc:Work
         rdf:about="">
        <dc:format>image/svg+xml</dc:format>
        <dc:type
           rdf:resource="http://purl.org/dc/dcmitype/StillImage" />
        <dc:title></dc:title>
      </cc:Work>
    </rdf:RDF>
  </metadata>
  <defs
     id="defs3771">
    <inkscape:path-effect
       effect="bspline"
       id="path-effect3807"
       is_visible="true"
       weight="33.333333"
       steps="2"
       helper_size="0"
       apply_no_weight="true"
       apply_with_weight="true"
       only_selected="false" />
    <inkscape:path-effect
       effect="bspline"
       id="path-effect3803"
       is_visible="true"
       weight="33.333333"
       steps="2"
       helper_size="0"
       apply_no_weight="true"
       apply_with_weight="true"
       only_selected="false" />
    <inkscape:path-effect
       effect="bspline"
       id="path-effect3798"
       is_visible="true"
       weight="33.333333"
       steps="2"
       helper_size="0"
       apply_no_weight="true"
       apply_with_weight="true"
       only_selected="false" />
  </defs>
  <sodipodi:namedview
     pagecolor="#ffffff"
     bordercolor="#666666"
     borderopacity="1"
     objecttolerance="10"
     gridtolerance="10"
     guidetolerance="10"
     inkscape:pageopacity="0"
     inkscape:pageshadow="2"
     inkscape:window-width="1362"
     inkscape:window-height="729"
     id="namedview3769"
     showgrid="false"
     inkscape:zoom="1.5875"
     inkscape:cx="202.85021"
     inkscape:cy="41.69098"
     inkscape:window-x="0"
     inkscape:window-y="37"
     inkscape:window-maximized="0"
     inkscape:current-layer="svg3767" />
  <path
     style="fill:#000000;stroke:#000000;stroke-width:1px;stroke-linecap:butt;stroke-linejoin:miter;stroke-opacity:1;fill-opacity:1"
     d="m 47.939217,19.905507 c 1.391462,0.807605 3.952636,2.496495 8.481506,3.08099 4.52887,0.584495 11.024603,0.06484 16.31405,-1.169597 5.289446,-1.234434 9.372477,-3.183153 12.174513,-3.767383 2.802036,-0.584229 4.323893,0.195258 5.112444,1.539884 0.78855,1.344626 0.844247,3.256896 0.528722,5.633097 -0.315525,2.376201 -1.001869,5.214323 -1.732604,7.390745 -0.730735,2.176422 -1.513799,3.705261 -1.959958,5.526014 -0.44616,1.820753 -0.557356,3.933472 -0.770787,5.790093 -0.213431,1.85662 -0.528015,3.448045 -1.579111,6.331954 -1.051096,2.883909 -2.828289,7.030693 -3.801981,9.954179 -0.973691,2.923486 -1.142472,4.648801 -1.62501,6.273169 -0.482537,1.624369 -1.280076,3.163804 -2.515934,4.526758 -1.235859,1.362953 -2.865214,2.516317 -4.824191,2.850696 -1.958977,0.334379 -4.221644,-0.166375 -7.340521,-1.827903 -3.118877,-1.661528 -7.08925,-4.481606 -10.531946,-6.597361 -3.442696,-2.115754 -6.356354,-3.526187 -8.862262,-5.568062 -2.505909,-2.041875 -4.602801,-4.714021 -5.660629,-7.108539 -1.057829,-2.394517 -1.07639,-4.510375 -0.760918,-7.228605 0.315471,-2.718229 0.965349,-6.041889 1.382308,-9.381946 0.416958,-3.340058 0.603631,-6.737506 1.039848,-9.409805 0.436216,-2.672299 1.123121,-4.640189 2.014347,-5.771862 0.891225,-1.131672 1.986219,-1.42862 2.645081,-1.614252 0.658861,-0.185632 0.881572,-0.259869 2.273033,0.547736 z"
     id="path3796"
     inkscape:connector-curvature="0"
     inkscape:path-effect="#path-effect3798"
     inkscape:original-d="m 46.769267,19.024065 c 2.562174,1.687891 5.123349,3.376781 7.683523,5.066671 6.49673,-0.520658 12.992463,-1.040317 19.487195,-1.558976 4.084031,-1.94972 8.167062,-3.898439 12.249093,-5.846158 1.522858,0.778487 3.044715,1.557975 4.565572,2.338463 0.05666,1.909932 0.112355,3.822202 0.167033,5.734803 -0.68604,2.840004 -1.372383,5.678126 -2.060075,8.518688 -0.774108,1.512307 -1.557172,3.041146 -2.338463,4.565571 -0.11047,2.116933 -0.221666,4.229652 -0.334067,6.347258 -0.314634,1.595738 -0.629218,3.187163 -0.94652,4.788283 -1.78518,4.166752 -3.562373,8.313536 -5.345059,12.471804 -0.166085,1.688408 -0.333067,3.413899 -0.5011,5.122348 -0.797555,1.540398 -1.595094,3.079833 -2.394141,4.621249 -1.670629,1.187714 -3.302543,2.337464 -4.955315,3.507696 -2.264786,-0.502445 -4.527453,-1.003199 -6.792679,-1.503298 -3.971978,-2.822929 -7.942352,-5.643007 -11.915028,-8.463011 -2.912941,-1.41157 -5.826599,-2.822003 -8.741399,-4.231505 -2.096494,-2.673913 -4.193386,-5.346059 -6.29158,-8.017589 -0.01756,-2.116647 -0.03612,-4.232505 -0.05568,-6.347257 0.650269,-3.321547 1.300147,-6.645206 1.94872,-9.966308 0.186528,-3.359057 0.372185,-6.756561 0.556777,-10.133342 0.687478,-1.967666 1.374383,-3.935557 2.060075,-5.901835 1.095995,-0.297948 2.190989,-0.594896 3.284984,-0.890844 0.223711,-0.07524 0.446423,-0.149474 0.668134,-0.222711 z"
     sodipodi:nodetypes="cccccccccccccccccccccccc" />
  <g
     inkscape:groupmode="layer"
     id="layer1"
     inkscape:label="head" />
  <path
     style="fill:#000000;fill-opacity:1;stroke:#000000;stroke-width:1px;stroke-linecap:butt;stroke-linejoin:miter;stroke-opacity:1"
     d="m 90.796443,34.761253 c 1.138378,-1.040718 2.540779,-0.268691 5.404727,1.9564 2.863948,2.225091 7.18971,5.903365 9.90364,9.500734 2.71393,3.59737 3.81625,7.114321 4.34129,10.99902 0.52503,3.884699 0.47255,8.135912 -0.0244,12.040519 -0.49693,3.904607 -1.44503,7.486299 -2.6001,11.686572 -1.15507,4.200272 -2.51944,9.028067 -3.70064,12.93919 -1.18119,3.911123 -2.17832,6.902512 -2.65096,10.525522 -0.47264,3.623 -0.42017,7.87326 -0.68254,11.12803 -0.26238,3.25476 -0.839672,5.51145 -2.178569,8.2157 -1.338896,2.70425 -3.437536,5.85221 -5.038595,7.79479 -1.601059,1.94258 -2.703019,2.67722 -3.990387,2.46708 -1.287369,-0.21014 -2.755648,-1.36379 -2.781733,-4.48802 -0.02609,-3.12424 1.391109,-8.21564 2.467274,-11.49631 1.076164,-3.28068 1.811244,-4.75084 1.889822,-6.37712 0.07858,-1.62627 -0.499321,-3.4125 -1.173248,-4.05688 -0.673927,-0.64439 -1.371955,-0.19565 -2.154604,1.80305 -0.782649,1.9987 -1.632937,5.61242 -2.315461,8.70997 -0.682524,3.09756 -1.207286,5.72137 -1.49612,9.0294 -0.288834,3.30804 -0.341305,7.29579 -0.708391,9.68431 -0.367085,2.38852 -1.049326,3.17572 -2.415492,3.59623 -1.366165,0.4205 -3.410636,0.47292 -4.86055,-0.32577 -1.449915,-0.79869 -2.278341,-2.40376 -2.56696,-5.65812 -0.288618,-3.25435 -0.02609,-8.13739 0.761307,-12.9401 0.787396,-4.80271 2.100016,-9.52814 2.206209,-12.41457 0.106193,-2.88643 -1.103874,-4.04149 -2.652007,-4.67138 -1.548132,-0.6299 -3.490348,-0.78738 -5.61673,-0.315 -2.126383,0.47237 -4.435008,1.57422 -5.43296,3.28072 -0.997952,1.7065 -0.683156,4.01501 -0.446867,7.21781 0.236288,3.20279 0.393711,7.29577 0.524963,11.46949 0.131252,4.17373 0.236214,8.4247 -0.288351,11.15447 -0.524565,2.72977 -1.679161,3.93684 -3.438919,4.06829 -1.759758,0.13145 -4.119964,-0.81263 -5.485148,-2.67698 -1.365185,-1.86435 -1.732559,-4.6459 -1.968719,-8.16237 -0.23616,-3.51646 -0.341179,-7.76973 -1.128502,-11.91605 -0.787323,-4.14631 -2.257475,-8.18923 -2.939753,-10.86656 -0.682277,-2.67733 -0.577276,-3.98985 -0.996971,-6.40292 -0.419696,-2.413062 -1.36535,-5.932998 -2.651263,-8.872166 -1.285912,-2.939168 -2.913525,-5.301831 -4.14711,-7.742858 -1.233586,-2.441027 -2.073556,-4.960937 -2.650899,-7.506695 -0.577344,-2.545758 -0.892379,-5.118549 -0.682392,-8.87113 0.209986,-3.752581 0.945141,-8.688623 1.469854,-10.735674 0.524712,-2.047052 0.839744,-1.206966 2.100403,0.342595 1.260658,1.549561 3.463944,3.805306 5.983853,5.616441 2.519909,1.811134 5.35454,3.175957 8.844943,5.275456 3.490403,2.099499 7.638,4.934566 10.675799,6.392136 3.037798,1.457569 4.965874,1.538179 6.593295,1.275416 1.627421,-0.262762 2.954039,-0.868302 4.32098,-1.916111 1.366941,-1.047808 2.776075,-2.539141 3.933762,-5.291159 1.157686,-2.752018 2.06545,-6.76545 3.345317,-10.556414 1.279867,-3.790964 2.931546,-7.359427 3.695032,-10.181974 0.763486,-2.822547 0.639393,-4.899448 1.014746,-7.36545 0.375353,-2.466001 1.249728,-5.320843 2.388105,-6.36156 z"
     id="path3801"
     inkscape:connector-curvature="0"
     inkscape:path-effect="#path-effect3803"
     inkscape:original-d="m 90.532076,32.948319 c 1.4034,0.771026 2.805801,1.543053 4.207201,2.31608 4.326754,3.677271 8.652513,7.355543 12.977263,11.034814 1.10339,3.51617 2.20572,7.03312 3.30708,10.551181 -0.0515,4.251724 -0.10398,8.502937 -0.15748,12.755905 -0.8916,3.569404 -1.88876,7.138108 -2.83464,10.708662 -1.36429,4.829995 -2.72866,9.657792 -4.09449,14.488189 -0.99662,2.991861 -1.99375,5.98325 -2.99213,8.97638 0.0535,4.25267 0.10599,8.50293 0.15748,12.7559 -0.57656,2.25675 -1.153853,4.51344 -1.732281,6.77166 -2.099834,3.15025 -4.198475,6.29821 -6.299213,9.44882 -1.101766,0.73417 -2.203724,1.46881 -3.307086,2.20472 -1.470355,-1.15706 -2.938633,-2.31071 -4.409449,-3.46457 1.41845,-5.09332 2.835645,-10.18472 4.251968,-15.27559 0.735737,-1.47047 1.470817,-2.94063 2.204725,-4.40945 -0.575957,-1.78432 -1.153856,-3.57055 -1.732284,-5.35433 -0.786131,0.47128 -1.468816,0.94388 -2.204724,1.41733 -0.840224,3.52162 -1.67879,7.1381 -2.519685,10.70866 -0.524107,2.62453 -1.048869,5.24834 -1.574803,7.87401 -0.05152,3.99026 -0.103987,7.97801 -0.157481,11.96851 -0.681588,0.7866 -1.363829,1.5738 -2.047244,2.3622 -2.049016,0.0516 -4.093488,0.10399 -6.141732,0.15748 -0.891835,-1.62911 -1.67879,-3.25559 -2.519685,-4.88189 0.263405,-4.88174 0.525934,-9.76478 0.787401,-14.64567 1.313054,-4.72439 2.625672,-9.44982 3.937008,-14.17323 -1.048605,-1.10308 -2.308711,-2.20572 -3.464567,-3.30708 -1.941297,-0.15849 -3.883514,-0.31596 -5.826771,-0.47244 -2.309797,1.10188 -4.618423,2.20372 -6.929134,3.30708 0.316125,2.30992 0.630921,4.61843 0.944882,6.92914 0.158538,4.09499 0.31596,8.18797 0.472441,12.28346 0.106011,4.25197 0.210973,8.50294 0.31496,12.75591 -1.15412,1.20662 -2.308711,2.4137 -3.464567,3.62204 -2.363203,-0.94668 -4.723409,-1.89076 -7.086614,-2.83464 -0.366534,-2.78376 -0.733908,-5.56531 -1.102362,-8.34646 -0.103955,-4.25166 -0.208974,-8.50493 -0.314961,-12.7559 -1.468479,-4.04207 -2.938632,-8.08499 -4.409448,-12.12599 0.105972,-1.31315 0.210973,-2.62567 0.31496,-3.93701 -0.943109,-3.51518 -1.888764,-7.035116 -2.834645,-10.551176 -1.625981,-2.362747 -3.253594,-4.72541 -4.88189,-7.086615 -0.83882,-2.52046 -1.67879,-5.04037 -2.519685,-7.559055 -0.313886,-2.572566 -0.628922,-5.145357 -0.944882,-7.716535 0.735661,-4.933725 1.470816,-9.869767 2.204724,-14.80315 0.315889,0.838704 0.630922,1.67879 0.944882,2.519685 2.207163,2.257691 4.410449,4.513436 6.614173,6.771654 2.835661,1.363836 5.670292,2.728659 8.503937,4.094488 4.147366,2.833225 8.294964,5.668291 12.440945,8.503937 1.928875,0.0796 3.85695,0.160211 5.783925,0.241816 1.327619,-0.60654 2.654237,-1.212079 3.979855,-1.816619 1.408498,-1.490601 2.817632,-2.981934 4.224949,-4.471401 0.908763,-4.01443 1.816527,-8.027861 2.72329,-12.04029 1.652678,-3.569461 3.304356,-7.137924 4.955034,-10.705385 -0.123092,-2.077901 -0.247185,-4.154802 -0.372277,-6.230703 0.875376,-2.855845 1.749751,-5.710687 2.623127,-8.564532 z"
     sodipodi:nodetypes="ccccccccccccccccccccccccccccccccccccccccccccccccccccc" />
  <path
     style="fill:#000000;fill-opacity:1;stroke:#000000;stroke-width:1px;stroke-linecap:butt;stroke-linejoin:miter;stroke-opacity:1"
     d="m 102.95927,110.26185 c -0.16397,-1.07653 -0.1246,-2.71694 0.092,-4.54772 0.21663,-1.83077 0.61034,-3.85177 1.1811,-5.9772 0.57076,-2.125429 1.31917,-4.357554 2.00155,-6.581955 0.68238,-2.224401 1.29918,-4.442251 1.83708,-6.233004 0.53789,-1.790753 0.99761,-3.156765 1.33992,-4.403588 0.34231,-1.246823 0.5678,-2.37568 0.71216,-3.090903 0.14436,-0.715222 0.20759,-1.016806 0.38196,-0.77086 0.17438,0.245946 0.46539,1.052839 1.2146,2.551368 0.74922,1.49853 1.95467,3.68668 3.31967,5.655447 1.36501,1.968767 2.8871,3.71392 4.00909,5.347631 1.12199,1.633711 1.84374,3.15596 2.58532,4.934401 0.74158,1.778442 1.50252,3.811993 1.94221,5.255523 0.43969,1.44353 0.55777,2.29632 0.40691,3.34664 -0.15087,1.05031 -0.5704,2.29579 -1.79145,3.4777 -1.22106,1.18192 -3.24011,2.29633 -5.30771,2.96595 -2.0676,0.66963 -4.17922,0.8926 -5.72805,1.03044 -1.54883,0.13783 -2.53257,0.1903 -3.4846,0.15751 -0.95203,-0.0328 -1.86968,-0.15077 -2.50011,-0.33461 -0.63042,-0.18383 -0.9713,-0.43294 -1.32588,-0.81381 -0.35458,-0.38087 -0.72185,-0.89242 -0.88581,-1.96896 z"
     id="path3805"
     inkscape:connector-curvature="0"
     inkscape:path-effect="#path-effect3807"
     inkscape:original-d="m 102.75591,110.82677 c 0.0404,-1.64143 0.0797,-3.28184 0.11811,-4.92126 0.3947,-2.022 0.7884,-4.043 1.1811,-6.06299 0.74864,-2.23082 1.49706,-4.462944 2.24409,-6.692914 0.6178,-2.218846 1.2346,-4.436696 1.8504,-6.653543 0.45992,-1.364644 0.91963,-2.730657 1.37795,-4.094488 0.22649,-1.12986 0.45197,-2.258718 0.67645,-3.386576 0.0642,-0.302588 0.12746,-0.604166 0.18969,-0.904763 0.28696,0.791896 0.57797,1.598789 0.86614,2.401575 1.21025,2.194052 2.4157,4.382202 3.62205,6.574803 1.52353,1.744661 3.04562,3.489814 4.56693,5.236221 0.72281,1.521373 1.44457,3.043619 2.16535,4.566929 0.76237,2.033694 1.52331,4.067246 2.28347,6.102366 0.11914,0.85224 0.23722,1.70503 0.35433,2.55905 -0.41936,1.24696 -0.8389,2.49244 -1.25984,3.74016 -2.02195,1.11556 -4.041,2.22997 -6.063,3.34646 -2.1131,0.22222 -4.22472,0.44519 -6.33858,0.66929 -0.98376,0.0515 -1.9675,0.10398 -2.95275,0.15748 -0.91862,-0.11924 -1.83627,-0.23722 -2.75591,-0.35433 -0.34053,-0.25058 -0.68141,-0.49969 -1.02362,-0.74804 -0.36664,-0.51307 -0.73391,-1.02462 -1.10236,-1.53543 z"
     sodipodi:nodetypes="ccccccccccccccccccccc"
     transform="translate(0.39370074,1.9685039)" />
</svg>
